<svg width="536" height="473" viewBox="0 0 536 473" fill="none" xmlns="http://www.w3.org/2000/svg">
<path d="M465.748 283.357H14.6833C11.0449 283.352 7.55682 281.906 4.98413 279.335C2.41145 276.764 0.964313 273.278 0.960205 269.642V15.4616H479.471V269.642C479.467 273.278 478.02 276.764 475.447 279.335C472.874 281.906 469.386 283.352 465.748 283.357Z" fill="#FBFBFB"/>
<path d="M447.797 257.104H32.6334C30.7591 257.102 28.9622 256.357 27.6369 255.033C26.3116 253.708 25.5661 251.912 25.564 250.039V48.7781C25.5661 46.9049 26.3116 45.1091 27.6369 43.7846C28.9622 42.46 30.7591 41.715 32.6334 41.7129H447.797C449.671 41.715 451.468 42.46 452.794 43.7845C454.119 45.1091 454.864 46.9049 454.867 48.7781V250.039C454.864 251.912 454.119 253.708 452.794 255.033C451.468 256.357 449.671 257.102 447.797 257.104Z" fill="#DAE0E6"/>
<path d="M480.431 24.7261H0V13.7148C0.00410984 10.0786 1.45125 6.59263 4.02393 4.0215C6.59661 1.45037 10.0847 0.00410736 13.7231 0H466.708C470.346 0.00410736 473.834 1.45037 476.407 4.0215C478.98 6.59263 480.427 10.0786 480.431 13.7148V24.7261Z" fill="#EF4C10"/>
<path d="M130.836 180.045H56.943C55.0687 180.043 53.2718 179.298 51.9465 177.973C50.6211 176.649 49.8756 174.853 49.8735 172.98V124.432C49.8756 122.559 50.6211 120.763 51.9465 119.439C53.2718 118.114 55.0687 117.369 56.943 117.367H130.836C132.71 117.369 134.507 118.114 135.832 119.439C137.158 120.763 137.903 122.559 137.905 124.432V172.98C137.903 174.853 137.158 176.649 135.832 177.973C134.507 179.298 132.71 180.043 130.836 180.045Z" fill="#FBFBFB"/>
<path d="M426.625 125.226H193.155C192.112 125.226 191.112 124.812 190.374 124.075C189.637 123.338 189.222 122.339 189.222 121.297C189.222 120.254 189.637 119.255 190.374 118.518C191.112 117.781 192.112 117.367 193.155 117.367H426.625C427.668 117.367 428.668 117.781 429.406 118.518C430.143 119.255 430.557 120.254 430.557 121.297C430.557 122.339 430.143 123.338 429.406 124.075C428.668 124.812 427.668 125.226 426.625 125.226Z" fill="#FBFBFB"/>
<path d="M426.625 153.338H193.155C192.112 153.338 191.112 152.924 190.374 152.187C189.637 151.45 189.223 150.451 189.223 149.409C189.223 148.366 189.637 147.367 190.374 146.63C191.112 145.893 192.112 145.479 193.155 145.479H426.625C427.668 145.479 428.668 145.893 429.406 146.63C430.143 147.367 430.557 148.366 430.557 149.409C430.557 150.451 430.143 151.45 429.406 152.187C428.668 152.924 427.668 153.338 426.625 153.338Z" fill="#FBFBFB"/>
<path d="M426.625 181.45H193.155C192.112 181.45 191.112 181.036 190.374 180.299C189.637 179.562 189.222 178.563 189.222 177.521C189.222 176.478 189.637 175.479 190.374 174.742C191.112 174.005 192.112 173.591 193.155 173.591H426.625C427.668 173.591 428.668 174.005 429.406 174.742C430.143 175.479 430.557 176.478 430.557 177.521C430.557 178.563 430.143 179.562 429.406 180.299C428.668 181.036 427.668 181.45 426.625 181.45Z" fill="#FBFBFB"/>
<path d="M348.938 462.405H338.742L333.891 423.099H348.94L348.938 462.405Z" fill="#D3959E"/>
<path d="M331.458 459.493H351.123V471.867H319.077C319.077 470.242 319.397 468.633 320.019 467.131C320.642 465.63 321.554 464.266 322.703 463.117C323.853 461.968 325.218 461.056 326.72 460.435C328.222 459.813 329.832 459.493 331.458 459.493Z" fill="#2F2E41"/>
<path d="M391.355 462.405H381.158L376.308 423.099H391.357L391.355 462.405Z" fill="#D3959E"/>
<path d="M373.875 459.493H393.54V471.867H361.494C361.494 470.242 361.814 468.633 362.436 467.131C363.058 465.63 363.97 464.266 365.12 463.117C366.27 461.968 367.635 461.056 369.137 460.435C370.639 459.813 372.249 459.493 373.875 459.493Z" fill="#2F2E41"/>
<path d="M390.056 453.371H379.677C378.739 453.366 377.837 453.011 377.148 452.377C376.458 451.742 376.03 450.873 375.947 449.94L367.151 344.046C367.126 343.739 366.986 343.451 366.761 343.24C366.535 343.029 366.239 342.909 365.93 342.904C365.621 342.898 365.321 343.007 365.088 343.21C364.855 343.414 364.706 343.696 364.669 344.003L352.036 450.073C351.928 450.982 351.489 451.819 350.805 452.427C350.12 453.035 349.236 453.37 348.32 453.371H335.575C334.587 453.369 333.639 452.977 332.938 452.281C332.238 451.584 331.841 450.639 331.834 449.651C331.806 442.988 331.761 436.277 331.715 429.565C331.311 369.784 330.892 307.967 343.383 283.75L343.497 283.529L388.569 282.759L388.682 283.006C402.318 312.788 398.179 379.321 394.177 443.663L393.791 449.863C393.731 450.812 393.311 451.703 392.618 452.355C391.924 453.006 391.008 453.369 390.056 453.371Z" fill="#2F2E41"/>
<path d="M368.704 203.165C379.986 203.165 389.131 194.025 389.131 182.75C389.131 171.475 379.986 162.335 368.704 162.335C357.422 162.335 348.277 171.475 348.277 182.75C348.277 194.025 357.422 203.165 368.704 203.165Z" fill="#D3959E"/>
<path d="M340.854 287.281L341.417 263.875L337.365 245.612C336.341 241.09 336.401 236.39 337.539 231.895C338.678 227.4 340.862 223.238 343.915 219.747C346.885 216.273 350.634 213.55 354.858 211.8C359.081 210.05 363.658 209.322 368.217 209.676C368.511 209.699 368.806 209.724 369.102 209.75C372.996 210.101 376.781 211.231 380.229 213.074C383.677 214.918 386.718 217.436 389.172 220.479C391.677 223.539 393.539 227.072 394.649 230.867C395.758 234.661 396.092 238.641 395.629 242.567L390.727 285.388L340.854 287.281Z" fill="#EF4C10"/>
<path d="M323.502 329.232C324.466 328.48 325.253 327.526 325.808 326.437C326.363 325.348 326.672 324.151 326.714 322.93C326.755 321.708 326.529 320.493 326.05 319.369C325.571 318.244 324.851 317.239 323.941 316.423L335.442 289.034L320.263 291.883L311.668 317.455C310.398 319.074 309.766 321.102 309.891 323.156C310.017 325.209 310.893 327.145 312.351 328.597C313.81 330.048 315.751 330.915 317.806 331.032C319.861 331.149 321.888 330.508 323.502 329.232Z" fill="#D3959E"/>
<path d="M410.285 332.515C409.365 331.709 408.634 330.712 408.142 329.593C407.65 328.475 407.409 327.262 407.437 326.04C407.465 324.819 407.76 323.618 408.303 322.523C408.845 321.428 409.621 320.465 410.576 319.702L400.653 291.703L415.645 295.411L422.77 321.43C423.946 323.118 424.462 325.179 424.219 327.222C423.977 329.265 422.993 331.148 421.454 332.515C419.915 333.881 417.928 334.636 415.869 334.636C413.811 334.636 411.824 333.881 410.285 332.515Z" fill="#D3959E"/>
<path d="M325.328 315.811C324.801 315.811 324.28 315.7 323.798 315.485L315.048 311.567C314.206 311.192 313.533 310.518 313.158 309.677C312.783 308.835 312.732 307.885 313.016 307.008L327.693 261.442L333.365 227.114C333.567 225.894 334.012 224.727 334.674 223.683C335.336 222.639 336.201 221.738 337.219 221.035C338.236 220.331 339.385 219.84 340.596 219.589C341.807 219.339 343.057 219.334 344.27 219.576C345.483 219.817 346.635 220.301 347.658 220.996C348.68 221.692 349.552 222.586 350.222 223.626C350.891 224.665 351.345 225.829 351.556 227.047C351.766 228.265 351.729 229.513 351.448 230.717L342.827 267.532L328.908 313.161C328.675 313.928 328.201 314.6 327.556 315.077C326.911 315.554 326.13 315.811 325.328 315.811Z" fill="#EF4C10"/>
<path d="M408.799 315.811C407.997 315.811 407.216 315.554 406.571 315.077C405.927 314.6 405.453 313.928 405.219 313.161L391.308 267.558L382.68 230.717C382.398 229.513 382.361 228.265 382.572 227.047C382.782 225.829 383.236 224.665 383.905 223.626C384.575 222.586 385.447 221.692 386.47 220.996C387.492 220.3 388.644 219.817 389.857 219.575C391.071 219.334 392.32 219.338 393.531 219.589C394.743 219.84 395.891 220.331 396.909 221.035C397.926 221.738 398.791 222.638 399.453 223.683C400.115 224.727 400.56 225.894 400.762 227.114L406.449 261.502L421.112 307.008C421.395 307.885 421.345 308.835 420.969 309.677C420.594 310.518 419.921 311.192 419.079 311.567L410.329 315.485C409.848 315.7 409.326 315.811 408.799 315.811Z" fill="#EF4C10"/>
<path d="M369.124 160.184C363.447 157.726 356.031 160.784 353.739 166.528C352.314 170.102 352.749 174.134 353.535 177.901C354.321 181.668 355.442 185.428 355.321 189.274C355.201 193.12 353.543 197.203 350.129 198.982C348.089 200.045 345.703 200.163 343.491 200.798C341.28 201.432 338.997 202.914 338.679 205.191C338.197 208.636 342.378 211.26 342.35 214.738C342.321 218.424 337.712 220.612 337.115 224.249C337.012 225.314 337.182 226.388 337.608 227.369C338.034 228.351 338.703 229.208 339.551 229.86C341.262 231.144 343.207 232.085 345.277 232.63C361.202 237.717 378.159 238.683 394.559 235.436C397.818 234.787 401.172 233.908 403.704 231.758C406.236 229.607 407.685 225.843 406.229 222.857C404.047 218.381 397.119 218.126 394.705 213.771C393.257 211.159 393.923 207.952 394.228 204.981C395.016 197.308 396.833 188.345 394.926 180.872C393.202 174.12 389.461 165.395 384.113 160.923C380.276 157.715 372.951 159.176 368.047 160.166L369.124 160.184Z" fill="#2F2E41"/>
<path d="M535.168 473H244.073C243.853 473 243.641 472.912 243.485 472.757C243.329 472.601 243.241 472.389 243.241 472.169C243.241 471.948 243.329 471.737 243.485 471.581C243.641 471.425 243.853 471.338 244.073 471.338H535.168C535.389 471.338 535.6 471.425 535.756 471.581C535.912 471.737 536 471.948 536 472.169C536 472.389 535.912 472.601 535.756 472.757C535.6 472.912 535.389 473 535.168 473Z" fill="#FBFBFB"/>
<path d="M504.517 454.072C492.524 470.124 467.629 471.813 467.629 471.813C467.629 471.813 462.179 447.478 474.172 431.427C486.164 415.376 511.059 413.686 511.059 413.686C511.059 413.686 516.51 438.021 504.517 454.072Z" fill="#FBFBFB"/>
<path d="M443.423 460.106C451.337 470.698 467.764 471.813 467.764 471.813C467.764 471.813 471.361 455.755 463.447 445.163C455.533 434.572 439.106 433.457 439.106 433.457C439.106 433.457 435.509 449.515 443.423 460.106Z" fill="#FBFBFB"/>
</svg>
