<svg width="111" height="52" viewBox="0 0 111 52" fill="none" xmlns="http://www.w3.org/2000/svg">
<g filter="url(#filter0_d_26_4)">
<path d="M24 44C35.0457 44 44 35.0457 44 24C44 12.9543 35.0457 4 24 4C12.9543 4 4 12.9543 4 24C4 35.0457 12.9543 44 24 44Z" fill="#FF4500"/>
<path d="M37.34 24C37.3194 23.437 37.1364 22.892 36.8131 22.4307C36.4898 21.9694 36.0399 21.6115 35.5177 21.4001C34.9956 21.1887 34.4234 21.1328 33.8702 21.2393C33.317 21.3457 32.8064 21.6099 32.4 22C30.1248 20.4534 27.4504 19.599 24.7 19.54L26 13.3L30.28 14.2C30.3309 14.673 30.5487 15.1123 30.8943 15.4392C31.2399 15.766 31.6907 15.959 32.1658 15.9834C32.6408 16.0079 33.1091 15.8622 33.4864 15.5725C33.8637 15.2829 34.1254 14.8682 34.2246 14.4029C34.3238 13.9377 34.2538 13.4523 34.0274 13.034C33.8009 12.6157 33.4328 12.2917 32.989 12.1204C32.5453 11.949 32.055 11.9414 31.6061 12.099C31.1573 12.2565 30.7793 12.5689 30.54 12.98L25.64 12C25.5599 11.9824 25.477 11.9809 25.3963 11.9956C25.3156 12.0102 25.2386 12.0408 25.1697 12.0854C25.1009 12.1301 25.0416 12.188 24.9953 12.2557C24.949 12.3234 24.9166 12.3997 24.9 12.48L23.42 19.42C20.6358 19.462 17.9245 20.317 15.62 21.88C15.3117 21.5899 14.944 21.3703 14.5424 21.2365C14.1407 21.1026 13.7148 21.0577 13.2941 21.1048C12.8734 21.1519 12.468 21.2899 12.1059 21.5093C11.7438 21.7287 11.4338 22.0241 11.1973 22.3752C10.9608 22.7263 10.8034 23.1247 10.7362 23.5426C10.6689 23.9606 10.6933 24.3882 10.8077 24.7958C10.9221 25.2034 11.1238 25.5812 11.3987 25.9031C11.6737 26.225 12.0153 26.4833 12.4 26.66C12.3775 26.9529 12.3775 27.2471 12.4 27.54C12.4 32.02 17.62 35.66 24.06 35.66C30.5 35.66 35.72 32.02 35.72 27.54C35.7425 27.2471 35.7425 26.9529 35.72 26.66C36.2135 26.4147 36.6276 26.0347 36.9142 25.564C37.2009 25.0933 37.3485 24.5511 37.34 24V24ZM17.34 26C17.34 25.6044 17.4573 25.2178 17.6771 24.8889C17.8968 24.56 18.2092 24.3036 18.5746 24.1522C18.9401 24.0009 19.3422 23.9613 19.7302 24.0384C20.1181 24.1156 20.4745 24.3061 20.7542 24.5858C21.0339 24.8655 21.2244 25.2219 21.3016 25.6098C21.3787 25.9978 21.3391 26.3999 21.1878 26.7654C21.0364 27.1308 20.78 27.4432 20.4511 27.6629C20.1222 27.8827 19.7356 28 19.34 28C19.0774 28 18.8173 27.9483 18.5746 27.8478C18.332 27.7472 18.1115 27.5999 17.9258 27.4142C17.7401 27.2285 17.5928 27.008 17.4922 26.7654C17.3917 26.5227 17.34 26.2626 17.34 26V26ZM28.96 31.5C27.541 32.5693 25.7952 33.1135 24.02 33.04C22.2448 33.1135 20.499 32.5693 19.08 31.5C18.995 31.3964 18.9515 31.2648 18.9581 31.1309C18.9646 30.997 19.0208 30.8704 19.1156 30.7756C19.2104 30.6808 19.337 30.6246 19.4709 30.6181C19.6048 30.6115 19.7364 30.655 19.84 30.74C21.0425 31.622 22.5102 32.0666 24 32C25.4916 32.0811 26.9662 31.6507 28.18 30.78C28.2861 30.6766 28.4289 30.6195 28.5771 30.6214C28.6504 30.6223 28.7229 30.6377 28.7903 30.6666C28.8577 30.6955 28.9188 30.7375 28.97 30.79C29.0212 30.8425 29.0616 30.9046 29.0888 30.9728C29.116 31.0409 29.1295 31.1137 29.1286 31.1871C29.1277 31.2604 29.1123 31.3329 29.0834 31.4003C29.0545 31.4677 29.0125 31.5288 28.96 31.58V31.5ZM28.6 28.08C28.2044 28.08 27.8178 27.9627 27.4889 27.7429C27.16 27.5232 26.9036 27.2108 26.7522 26.8454C26.6009 26.4799 26.5613 26.0778 26.6384 25.6898C26.7156 25.3019 26.9061 24.9455 27.1858 24.6658C27.4655 24.3861 27.8219 24.1956 28.2098 24.1184C28.5978 24.0413 28.9999 24.0809 29.3654 24.2322C29.7308 24.3836 30.0432 24.64 30.2629 24.9689C30.4827 25.2978 30.6 25.6844 30.6 26.08C30.6109 26.351 30.5665 26.6214 30.4696 26.8747C30.3727 27.128 30.2253 27.3589 30.0364 27.5535C29.8474 27.748 29.6209 27.9021 29.3705 28.0064C29.1201 28.1107 28.8512 28.1629 28.58 28.16L28.6 28.08Z" fill="white"/>
</g>
<g filter="url(#filter1_d_26_4)">
<path d="M103.63 31.5199V22.6799H104.63C104.769 22.6925 104.908 22.6759 105.04 22.6313C105.172 22.5867 105.293 22.515 105.396 22.4209C105.499 22.3267 105.58 22.2122 105.636 22.0846C105.692 21.957 105.721 21.8192 105.72 21.6799V21.6499C105.737 21.5146 105.725 21.3773 105.687 21.2465C105.649 21.1157 105.584 20.9941 105.497 20.8892C105.41 20.7843 105.302 20.6983 105.181 20.6365C105.059 20.5747 104.926 20.5385 104.79 20.5299H103.63V18.8799C103.631 18.5719 103.517 18.2746 103.309 18.0469C103.102 17.8191 102.817 17.6775 102.51 17.6499C102.195 17.6307 101.885 17.7364 101.647 17.9442C101.409 18.152 101.263 18.4451 101.24 18.7599V20.5499H100.24C100.101 20.5374 99.9615 20.554 99.8296 20.5986C99.6977 20.6432 99.5766 20.7149 99.474 20.809C99.3713 20.9031 99.2895 21.0177 99.2337 21.1453C99.178 21.2729 99.1494 21.4107 99.15 21.5499V21.6199C99.1334 21.7553 99.1446 21.8926 99.183 22.0234C99.2214 22.1542 99.2861 22.2758 99.3732 22.3807C99.4603 22.4856 99.5679 22.5716 99.6895 22.6334C99.811 22.6952 99.9439 22.7314 100.08 22.7399H101.21V31.5499C101.21 31.8655 101.335 32.1682 101.559 32.3914C101.782 32.6146 102.084 32.7399 102.4 32.7399V32.7399C102.714 32.7563 103.022 32.6477 103.256 32.4378C103.49 32.228 103.632 31.9339 103.65 31.6199C103.654 31.5853 103.647 31.5504 103.63 31.5199Z" fill="#1C1C1C"/>
<path d="M96.26 20.5599C97.4308 20.5599 98.38 19.6108 98.38 18.4399C98.38 17.2691 97.4308 16.3199 96.26 16.3199C95.0892 16.3199 94.14 17.2691 94.14 18.4399C94.14 19.6108 95.0892 20.5599 96.26 20.5599Z" fill="#FF4500"/>
<path d="M97.44 22.81C97.44 22.4944 97.3146 22.1917 97.0915 21.9685C96.8683 21.7454 96.5656 21.62 96.25 21.62C95.9344 21.62 95.6317 21.7454 95.4085 21.9685C95.1854 22.1917 95.06 22.4944 95.06 22.81V22.81V31.52C95.06 31.8356 95.1854 32.1383 95.4085 32.3615C95.6317 32.5846 95.9344 32.71 96.25 32.71C96.5656 32.71 96.8683 32.5846 97.0915 32.3615C97.3146 32.1383 97.44 31.8356 97.44 31.52V22.81Z" fill="#1C1C1C"/>
<path d="M79.84 16.19C79.84 15.8744 79.7146 15.5717 79.4915 15.3485C79.2683 15.1254 78.9656 15 78.65 15C78.3344 15 78.0317 15.1254 77.8085 15.3485C77.5854 15.5717 77.46 15.8744 77.46 16.19V21.51C77.0678 21.1159 76.5997 20.8054 76.0841 20.5974C75.5684 20.3895 75.0159 20.2883 74.46 20.3C71.36 20.3 68.77 23.15 68.77 26.65C68.77 30.15 71.28 33 74.42 33C74.9929 33.014 75.5627 32.9123 76.0954 32.701C76.628 32.4896 77.1126 32.173 77.52 31.77C77.5624 31.92 77.6344 32.0601 77.7317 32.1819C77.829 32.3037 77.9497 32.4049 78.0866 32.4794C78.2236 32.554 78.374 32.6004 78.5292 32.6159C78.6843 32.6315 78.841 32.6159 78.99 32.57C79.2207 32.5005 79.4252 32.3632 79.5768 32.176C79.7284 31.9887 79.8201 31.7601 79.84 31.52V16.19ZM74.41 30.64C72.58 30.64 71.09 28.87 71.09 26.64C71.09 24.41 72.57 22.64 74.41 22.64C76.25 22.64 77.72 24.42 77.72 26.64C77.72 28.86 76.25 30.59 74.42 30.59L74.41 30.64Z" fill="#1C1C1C"/>
<path d="M92.28 16.19C92.28 15.8744 92.1546 15.5717 91.9315 15.3485C91.7083 15.1254 91.4056 15 91.09 15V15C90.9342 15 90.7799 15.0308 90.6361 15.0908C90.4923 15.1507 90.3618 15.2385 90.2521 15.3491C90.1424 15.4598 90.0556 15.591 89.9969 15.7354C89.9382 15.8797 89.9087 16.0342 89.91 16.19V16.19V21.51C89.5164 21.1177 89.0481 20.8085 88.5327 20.6007C88.0174 20.3928 87.4656 20.2906 86.91 20.3C83.81 20.3 81.22 23.15 81.22 26.65C81.22 30.15 83.72 33 86.86 33C87.4395 33.0195 88.017 32.9204 88.5569 32.7089C89.0968 32.4974 89.5879 32.1779 90 31.77C90.0424 31.92 90.1144 32.0601 90.2117 32.1819C90.309 32.3037 90.4297 32.4049 90.5666 32.4794C90.7036 32.554 90.854 32.6004 91.0092 32.6159C91.1643 32.6315 91.321 32.6159 91.47 32.57C91.7014 32.5018 91.9066 32.3648 92.0584 32.1773C92.2102 31.9898 92.3015 31.7606 92.32 31.52L92.28 16.19ZM86.85 30.64C85.02 30.64 83.54 28.87 83.54 26.64C83.54 24.41 85.01 22.64 86.85 22.64C88.69 22.64 90.16 24.42 90.16 26.64C90.16 28.86 88.69 30.59 86.86 30.59L86.85 30.64Z" fill="#1C1C1C"/>
<path d="M66.27 27.44C66.6638 27.4675 67.0524 27.3377 67.3505 27.0789C67.6486 26.8202 67.8318 26.4538 67.86 26.06V25.91C67.852 25.6243 67.8185 25.3398 67.76 25.06C67.5181 23.7591 66.8408 22.5791 65.8395 21.7141C64.8381 20.849 63.5723 20.3504 62.25 20.3C59.15 20.3 56.56 23.15 56.56 26.65C56.56 30.15 59.11 33 62.25 33C63.0715 33.0305 63.8897 32.8817 64.6478 32.564C65.406 32.2462 66.0858 31.7671 66.64 31.16C66.7492 31.0406 66.8338 30.9009 66.8889 30.7487C66.944 30.5966 66.9685 30.4351 66.9611 30.2734C66.9536 30.1118 66.9144 29.9532 66.8456 29.8068C66.7767 29.6603 66.6797 29.5289 66.56 29.42L66.45 29.33C66.2055 29.178 65.917 29.1121 65.6307 29.1429C65.3444 29.1737 65.0766 29.2994 64.87 29.5C64.1686 30.1896 63.2331 30.5895 62.25 30.62C61.4211 30.556 60.6412 30.2023 60.0469 29.6208C59.4527 29.0394 59.0821 28.2674 59 27.44H66.27ZM62.27 22.68C63.0002 22.7302 63.6948 23.014 64.2513 23.4894C64.8077 23.9648 65.1965 24.6067 65.36 25.32H59.14C59.3041 24.6051 59.6943 23.9621 60.2527 23.4866C60.8112 23.011 61.5081 22.7282 62.24 22.68H62.27Z" fill="#1C1C1C"/>
<path d="M56.68 21.53C56.6813 21.2464 56.5812 20.9717 56.3979 20.7554C56.2145 20.5391 55.9599 20.3953 55.68 20.35C54.8909 20.2102 54.0789 20.2807 53.3257 20.5546C52.5726 20.8284 51.9049 21.296 51.39 21.91V21.75C51.3627 21.452 51.225 21.1749 51.0039 20.9731C50.7828 20.7713 50.4943 20.6595 50.195 20.6595C49.8957 20.6595 49.6072 20.7713 49.3861 20.9731C49.165 21.1749 49.0273 21.452 49 21.75V31.52C48.9962 31.8298 49.1095 32.1295 49.3171 32.3594C49.5248 32.5893 49.8115 32.7323 50.12 32.76C50.4325 32.7793 50.74 32.6746 50.9759 32.4687C51.2117 32.2628 51.3569 31.9723 51.38 31.66C51.385 31.6135 51.385 31.5666 51.38 31.52V26.52C51.353 26.0437 51.4205 25.5667 51.5785 25.1165C51.7365 24.6663 51.9819 24.2518 52.3007 23.8968C52.6194 23.5418 53.0052 23.2533 53.4359 23.0479C53.8665 22.8425 54.3335 22.7243 54.81 22.7C54.9899 22.69 55.1701 22.69 55.35 22.7H55.59C55.8854 22.6774 56.1615 22.5446 56.3634 22.3278C56.5653 22.1111 56.6784 21.8263 56.68 21.53V21.53Z" fill="#1C1C1C"/>
</g>
<defs>
<filter id="filter0_d_26_4" x="0" y="4" width="48" height="48" filterUnits="userSpaceOnUse" color-interpolation-filters="sRGB">
<feFlood flood-opacity="0" result="BackgroundImageFix"/>
<feColorMatrix in="SourceAlpha" type="matrix" values="0 0 0 0 0 0 0 0 0 0 0 0 0 0 0 0 0 0 127 0" result="hardAlpha"/>
<feOffset dy="4"/>
<feGaussianBlur stdDeviation="2"/>
<feComposite in2="hardAlpha" operator="out"/>
<feColorMatrix type="matrix" values="0 0 0 0 0 0 0 0 0 0 0 0 0 0 0 0 0 0 0.2 0"/>
<feBlend mode="normal" in2="BackgroundImageFix" result="effect1_dropShadow_26_4"/>
<feBlend mode="normal" in="SourceGraphic" in2="effect1_dropShadow_26_4" result="shape"/>
</filter>
<filter id="filter1_d_26_4" x="43.9999" y="14" width="66.7276" height="28.0039" filterUnits="userSpaceOnUse" color-interpolation-filters="sRGB">
<feFlood flood-opacity="0" result="BackgroundImageFix"/>
<feColorMatrix in="SourceAlpha" type="matrix" values="0 0 0 0 0 0 0 0 0 0 0 0 0 0 0 0 0 0 127 0" result="hardAlpha"/>
<feOffset dy="4"/>
<feGaussianBlur stdDeviation="2.5"/>
<feComposite in2="hardAlpha" operator="out"/>
<feColorMatrix type="matrix" values="0 0 0 0 0 0 0 0 0 0 0 0 0 0 0 0 0 0 0.2 0"/>
<feBlend mode="normal" in2="BackgroundImageFix" result="effect1_dropShadow_26_4"/>
<feBlend mode="normal" in="SourceGraphic" in2="effect1_dropShadow_26_4" result="shape"/>
</filter>
</defs>
</svg>
