<svg width="111" height="48" viewBox="0 0 111 48" fill="none" xmlns="http://www.w3.org/2000/svg">
<g filter="url(#filter0_d_2_29)">
<path d="M103.63 27.52V18.68H104.63C104.769 18.6925 104.908 18.676 105.04 18.6314C105.172 18.5867 105.293 18.5151 105.396 18.4209C105.499 18.3268 105.58 18.2123 105.636 18.0847C105.692 17.9571 105.721 17.8193 105.72 17.68V17.65C105.737 17.5147 105.725 17.3774 105.687 17.2465C105.649 17.1157 105.584 16.9941 105.497 16.8892C105.41 16.7843 105.302 16.6983 105.181 16.6366C105.059 16.5748 104.926 16.5385 104.79 16.53H103.63V14.88C103.631 14.572 103.517 14.2747 103.309 14.047C103.102 13.8192 102.817 13.6775 102.51 13.65C102.195 13.6307 101.885 13.7365 101.647 13.9442C101.409 14.152 101.263 14.4451 101.24 14.76V16.55H100.24C100.101 16.5375 99.9615 16.554 99.8296 16.5987C99.6977 16.6433 99.5766 16.7149 99.474 16.8091C99.3713 16.9032 99.2895 17.0177 99.2337 17.1453C99.178 17.2729 99.1494 17.4108 99.15 17.55V17.62C99.1334 17.7553 99.1446 17.8926 99.183 18.0235C99.2214 18.1543 99.2861 18.2759 99.3732 18.3808C99.4603 18.4857 99.5679 18.5717 99.6895 18.6334C99.811 18.6952 99.9439 18.7315 100.08 18.74H101.21V27.55C101.21 27.8656 101.335 28.1683 101.559 28.3915C101.782 28.6146 102.084 28.74 102.4 28.74V28.74C102.714 28.7564 103.022 28.6478 103.256 28.4379C103.49 28.228 103.632 27.934 103.65 27.62C103.654 27.5854 103.647 27.5505 103.63 27.52Z" fill="#1C1C1C"/>
<path d="M96.26 16.56C97.4308 16.56 98.38 15.6109 98.38 14.44C98.38 13.2692 97.4308 12.32 96.26 12.32C95.0892 12.32 94.14 13.2692 94.14 14.44C94.14 15.6109 95.0892 16.56 96.26 16.56Z" fill="#FF4500"/>
<path d="M97.44 18.81C97.44 18.4944 97.3146 18.1917 97.0915 17.9685C96.8683 17.7454 96.5656 17.62 96.25 17.62C95.9344 17.62 95.6317 17.7454 95.4085 17.9685C95.1854 18.1917 95.06 18.4944 95.06 18.81V18.81V27.52C95.06 27.8356 95.1854 28.1383 95.4085 28.3615C95.6317 28.5846 95.9344 28.71 96.25 28.71C96.5656 28.71 96.8683 28.5846 97.0915 28.3615C97.3146 28.1383 97.44 27.8356 97.44 27.52V18.81Z" fill="#1C1C1C"/>
<path d="M79.84 12.19C79.84 11.8744 79.7146 11.5717 79.4915 11.3485C79.2683 11.1254 78.9656 11 78.65 11C78.3344 11 78.0317 11.1254 77.8085 11.3485C77.5854 11.5717 77.46 11.8744 77.46 12.19V17.51C77.0678 17.1159 76.5997 16.8054 76.0841 16.5974C75.5684 16.3895 75.0159 16.2883 74.46 16.3C71.36 16.3 68.77 19.15 68.77 22.65C68.77 26.15 71.28 29 74.42 29C74.9929 29.014 75.5627 28.9123 76.0954 28.701C76.628 28.4896 77.1126 28.173 77.52 27.77C77.5624 27.92 77.6344 28.0601 77.7317 28.1819C77.829 28.3037 77.9497 28.4049 78.0866 28.4794C78.2236 28.554 78.374 28.6004 78.5292 28.6159C78.6843 28.6315 78.841 28.6159 78.99 28.57C79.2207 28.5005 79.4252 28.3632 79.5768 28.176C79.7284 27.9887 79.8201 27.7601 79.84 27.52V12.19ZM74.41 26.64C72.58 26.64 71.09 24.87 71.09 22.64C71.09 20.41 72.57 18.64 74.41 18.64C76.25 18.64 77.72 20.42 77.72 22.64C77.72 24.86 76.25 26.59 74.42 26.59L74.41 26.64Z" fill="#1C1C1C"/>
<path d="M92.28 12.19C92.28 11.8744 92.1546 11.5717 91.9315 11.3485C91.7083 11.1254 91.4056 11 91.09 11V11C90.9342 11 90.7799 11.0308 90.6361 11.0908C90.4923 11.1507 90.3618 11.2385 90.2521 11.3491C90.1424 11.4598 90.0556 11.591 89.9969 11.7354C89.9382 11.8797 89.9087 12.0342 89.91 12.19V12.19V17.51C89.5164 17.1177 89.0481 16.8085 88.5327 16.6007C88.0174 16.3928 87.4656 16.2906 86.91 16.3C83.81 16.3 81.22 19.15 81.22 22.65C81.22 26.15 83.72 29 86.86 29C87.4395 29.0195 88.017 28.9204 88.5569 28.7089C89.0968 28.4974 89.5879 28.1779 90 27.77C90.0424 27.92 90.1144 28.0601 90.2117 28.1819C90.309 28.3037 90.4297 28.4049 90.5666 28.4794C90.7036 28.554 90.854 28.6004 91.0092 28.6159C91.1643 28.6315 91.321 28.6159 91.47 28.57C91.7014 28.5018 91.9066 28.3648 92.0584 28.1773C92.2102 27.9898 92.3015 27.7606 92.32 27.52L92.28 12.19ZM86.85 26.64C85.02 26.64 83.54 24.87 83.54 22.64C83.54 20.41 85.01 18.64 86.85 18.64C88.69 18.64 90.16 20.42 90.16 22.64C90.16 24.86 88.69 26.59 86.86 26.59L86.85 26.64Z" fill="#1C1C1C"/>
<path d="M66.27 23.44C66.6638 23.4675 67.0524 23.3376 67.3505 23.0789C67.6486 22.8202 67.8318 22.4537 67.86 22.06V21.91C67.852 21.6242 67.8185 21.3398 67.76 21.06C67.5181 19.759 66.8408 18.5791 65.8395 17.714C64.8381 16.849 63.5723 16.3503 62.25 16.3C59.15 16.3 56.56 19.15 56.56 22.65C56.56 26.15 59.11 29 62.25 29C63.0715 29.0305 63.8897 28.8817 64.6478 28.5639C65.406 28.2462 66.0858 27.7671 66.64 27.16C66.7492 27.0406 66.8338 26.9008 66.8889 26.7487C66.944 26.5965 66.9685 26.435 66.9611 26.2734C66.9536 26.1118 66.9144 25.9532 66.8456 25.8067C66.7767 25.6603 66.6797 25.5289 66.56 25.42L66.45 25.33C66.2055 25.1779 65.917 25.112 65.6307 25.1428C65.3444 25.1736 65.0766 25.2994 64.87 25.5C64.1686 26.1896 63.2331 26.5895 62.25 26.62C61.4211 26.5559 60.6412 26.2022 60.0469 25.6208C59.4527 25.0393 59.0821 24.2673 59 23.44H66.27ZM62.27 18.68C63.0002 18.7302 63.6948 19.0139 64.2513 19.4893C64.8077 19.9648 65.1965 20.6066 65.36 21.32H59.14C59.3041 20.6051 59.6943 19.9621 60.2527 19.4865C60.8112 19.0109 61.5081 18.7281 62.24 18.68H62.27Z" fill="#1C1C1C"/>
<path d="M56.68 17.53C56.6813 17.2464 56.5812 16.9717 56.3979 16.7554C56.2145 16.539 55.9599 16.3953 55.68 16.35C54.8909 16.2101 54.0789 16.2807 53.3257 16.5545C52.5726 16.8284 51.9049 17.2959 51.39 17.91V17.75C51.3627 17.4519 51.225 17.1748 51.0039 16.9731C50.7828 16.7713 50.4943 16.6594 50.195 16.6594C49.8957 16.6594 49.6072 16.7713 49.3861 16.9731C49.165 17.1748 49.0273 17.4519 49 17.75V27.52C48.9962 27.8297 49.1095 28.1295 49.3171 28.3594C49.5248 28.5892 49.8115 28.7323 50.12 28.76C50.4325 28.7793 50.74 28.6746 50.9759 28.4687C51.2117 28.2628 51.3569 27.9722 51.38 27.66C51.385 27.6135 51.385 27.5665 51.38 27.52V22.52C51.353 22.0436 51.4205 21.5667 51.5785 21.1165C51.7365 20.6663 51.9819 20.2518 52.3007 19.8968C52.6194 19.5418 53.0052 19.2533 53.4359 19.0479C53.8665 18.8425 54.3335 18.7243 54.81 18.7C54.9899 18.69 55.1701 18.69 55.35 18.7H55.59C55.8854 18.6774 56.1615 18.5445 56.3634 18.3278C56.5653 18.111 56.6784 17.8262 56.68 17.53V17.53Z" fill="#1C1C1C"/>
</g>
<g filter="url(#filter1_d_2_29)">
<path d="M24 40C35.0457 40 44 31.0457 44 20C44 8.9543 35.0457 0 24 0C12.9543 0 4 8.9543 4 20C4 31.0457 12.9543 40 24 40Z" fill="#FF4500"/>
<path d="M37.34 20C37.3194 19.437 37.1364 18.892 36.8131 18.4307C36.4898 17.9694 36.0399 17.6115 35.5177 17.4001C34.9956 17.1887 34.4234 17.1328 33.8702 17.2393C33.317 17.3457 32.8064 17.6099 32.4 18C30.1248 16.4534 27.4504 15.599 24.7 15.54L26 9.3L30.28 10.2C30.3309 10.673 30.5487 11.1123 30.8943 11.4392C31.2399 11.766 31.6907 11.959 32.1658 11.9834C32.6408 12.0079 33.1091 11.8622 33.4864 11.5725C33.8637 11.2829 34.1254 10.8682 34.2246 10.4029C34.3238 9.9377 34.2538 9.45235 34.0274 9.03401C33.8009 8.61567 33.4328 8.29174 32.989 8.12037C32.5453 7.949 32.055 7.9414 31.6061 8.09895C31.1573 8.2565 30.7793 8.56887 30.54 8.98L25.64 8C25.5599 7.98242 25.477 7.98092 25.3963 7.99558C25.3156 8.01025 25.2386 8.04079 25.1697 8.08544C25.1009 8.13009 25.0416 8.18795 24.9953 8.25568C24.949 8.32341 24.9166 8.39965 24.9 8.48L23.42 15.42C20.6358 15.462 17.9245 16.317 15.62 17.88C15.3117 17.5899 14.944 17.3703 14.5424 17.2365C14.1407 17.1026 13.7148 17.0577 13.2941 17.1048C12.8734 17.1519 12.468 17.2899 12.1059 17.5093C11.7438 17.7287 11.4338 18.0241 11.1973 18.3752C10.9608 18.7263 10.8034 19.1247 10.7362 19.5426C10.6689 19.9606 10.6933 20.3882 10.8077 20.7958C10.9221 21.2034 11.1238 21.5812 11.3987 21.9031C11.6737 22.225 12.0153 22.4833 12.4 22.66C12.3775 22.9529 12.3775 23.2471 12.4 23.54C12.4 28.02 17.62 31.66 24.06 31.66C30.5 31.66 35.72 28.02 35.72 23.54C35.7425 23.2471 35.7425 22.9529 35.72 22.66C36.2135 22.4147 36.6276 22.0347 36.9142 21.564C37.2009 21.0933 37.3485 20.5511 37.34 20V20ZM17.34 22C17.34 21.6044 17.4573 21.2178 17.6771 20.8889C17.8968 20.56 18.2092 20.3036 18.5746 20.1522C18.9401 20.0009 19.3422 19.9613 19.7302 20.0384C20.1181 20.1156 20.4745 20.3061 20.7542 20.5858C21.0339 20.8655 21.2244 21.2219 21.3016 21.6098C21.3787 21.9978 21.3391 22.3999 21.1878 22.7654C21.0364 23.1308 20.78 23.4432 20.4511 23.6629C20.1222 23.8827 19.7356 24 19.34 24C19.0774 24 18.8173 23.9483 18.5746 23.8478C18.332 23.7472 18.1115 23.5999 17.9258 23.4142C17.7401 23.2285 17.5928 23.008 17.4922 22.7654C17.3917 22.5227 17.34 22.2626 17.34 22V22ZM28.96 27.5C27.541 28.5693 25.7952 29.1135 24.02 29.04C22.2448 29.1135 20.499 28.5693 19.08 27.5C18.995 27.3964 18.9515 27.2648 18.9581 27.1309C18.9646 26.997 19.0208 26.8704 19.1156 26.7756C19.2104 26.6808 19.337 26.6246 19.4709 26.6181C19.6048 26.6115 19.7364 26.655 19.84 26.74C21.0425 27.622 22.5102 28.0666 24 28C25.4916 28.0811 26.9662 27.6507 28.18 26.78C28.2861 26.6766 28.4289 26.6195 28.5771 26.6214C28.6504 26.6223 28.7229 26.6377 28.7903 26.6666C28.8577 26.6955 28.9188 26.7375 28.97 26.79C29.0212 26.8425 29.0616 26.9046 29.0888 26.9728C29.116 27.0409 29.1295 27.1137 29.1286 27.1871C29.1277 27.2604 29.1123 27.3329 29.0834 27.4003C29.0545 27.4677 29.0125 27.5288 28.96 27.58V27.5ZM28.6 24.08C28.2044 24.08 27.8178 23.9627 27.4889 23.7429C27.16 23.5232 26.9036 23.2108 26.7522 22.8454C26.6009 22.4799 26.5613 22.0778 26.6384 21.6898C26.7156 21.3019 26.9061 20.9455 27.1858 20.6658C27.4655 20.3861 27.8219 20.1956 28.2098 20.1184C28.5978 20.0413 28.9999 20.0809 29.3654 20.2322C29.7308 20.3836 30.0432 20.64 30.2629 20.9689C30.4827 21.2978 30.6 21.6844 30.6 22.08C30.6109 22.351 30.5665 22.6214 30.4696 22.8747C30.3727 23.128 30.2253 23.3589 30.0364 23.5535C29.8474 23.748 29.6209 23.9021 29.3705 24.0064C29.1201 24.1107 28.8512 24.1629 28.58 24.16L28.6 24.08Z" fill="white"/>
</g>
<defs>
<filter id="filter0_d_2_29" x="43.9999" y="10" width="66.7276" height="28.0039" filterUnits="userSpaceOnUse" color-interpolation-filters="sRGB">
<feFlood flood-opacity="0" result="BackgroundImageFix"/>
<feColorMatrix in="SourceAlpha" type="matrix" values="0 0 0 0 0 0 0 0 0 0 0 0 0 0 0 0 0 0 127 0" result="hardAlpha"/>
<feOffset dy="4"/>
<feGaussianBlur stdDeviation="2.5"/>
<feComposite in2="hardAlpha" operator="out"/>
<feColorMatrix type="matrix" values="0 0 0 0 0 0 0 0 0 0 0 0 0 0 0 0 0 0 0.2 0"/>
<feBlend mode="normal" in2="BackgroundImageFix" result="effect1_dropShadow_2_29"/>
<feBlend mode="normal" in="SourceGraphic" in2="effect1_dropShadow_2_29" result="shape"/>
</filter>
<filter id="filter1_d_2_29" x="0" y="0" width="48" height="48" filterUnits="userSpaceOnUse" color-interpolation-filters="sRGB">
<feFlood flood-opacity="0" result="BackgroundImageFix"/>
<feColorMatrix in="SourceAlpha" type="matrix" values="0 0 0 0 0 0 0 0 0 0 0 0 0 0 0 0 0 0 127 0" result="hardAlpha"/>
<feOffset dy="4"/>
<feGaussianBlur stdDeviation="2"/>
<feComposite in2="hardAlpha" operator="out"/>
<feColorMatrix type="matrix" values="0 0 0 0 0 0 0 0 0 0 0 0 0 0 0 0 0 0 0.2 0"/>
<feBlend mode="normal" in2="BackgroundImageFix" result="effect1_dropShadow_2_29"/>
<feBlend mode="normal" in="SourceGraphic" in2="effect1_dropShadow_2_29" result="shape"/>
</filter>
</defs>
</svg>
